<svg width="316" height="54" viewBox="0 0 316 54" fill="none" xmlns="http://www.w3.org/2000/svg">
<circle cx="4.67501" cy="39.325" r="4.67501" fill="#61D9D5"/>
<circle cx="48.0266" cy="39.325" r="4.67501" fill="#FC79D0"/>
<circle cx="4.67501" cy="27.425" r="4.67501" fill="#61D9D5"/>
<circle cx="48.0266" cy="27.425" r="4.67501" fill="#FC79D0"/>
<circle cx="4.67501" cy="14.675" r="4.67501" fill="#FF974B"/>
<circle cx="48.0266" cy="14.675" r="4.67501" fill="#51D26D"/>
<circle cx="17.425" cy="24.025" r="4.67501" fill="#FF974B"/>
<circle cx="35.2766" cy="24.025" r="4.67501" fill="#51D26D"/>
<circle cx="25.925" cy="33.3751" r="4.67501" fill="#FCD34D"/>
<path d="M103.799 16.864L106.607 43H97.2832L96.7072 24.352L93.1072 43H83.6752L80.0032 24.496L79.4632 43H70.1392L72.9472 16.864H85.1872L88.3192 33.892L91.0552 16.864H103.799ZM117.975 36.412C127.095 36.364 133.707 36.232 137.811 36.016C137.643 37 137.535 38.02 137.487 39.076C137.463 40.108 137.451 41.416 137.451 43H109.479C109.671 38.344 109.767 33.988 109.767 29.932C109.767 25.876 109.671 21.52 109.479 16.864H137.451V23.38H117.975V26.836C119.127 26.86 120.831 26.872 123.087 26.872C126.903 26.872 130.851 26.8 134.931 26.656V32.848C130.851 32.704 126.903 32.632 123.087 32.632C120.831 32.632 119.127 32.644 117.975 32.668V36.412ZM169.829 24.424C166.061 24.304 162.401 24.232 158.849 24.208V43H149.849V24.208C146.273 24.232 142.625 24.304 138.905 24.424V16.864H169.829V24.424ZM201.633 25.576C201.633 27.664 201.117 29.428 200.085 30.868C199.077 32.308 197.337 33.352 194.865 34C195.153 34.384 195.357 34.684 195.477 34.9L201.309 43H191.517C190.461 41.032 188.793 38.248 186.513 34.648H181.221V43H172.725C172.917 38.344 173.013 33.988 173.013 29.932C173.013 25.876 172.917 21.52 172.725 16.864H181.221V16.9H188.601C193.449 16.9 196.833 17.68 198.753 19.24C200.673 20.8 201.633 22.912 201.633 25.576ZM181.221 23.812V27.916H186.081C188.121 27.916 189.657 27.856 190.689 27.736C191.745 27.592 192.477 27.376 192.885 27.088C193.293 26.8 193.497 26.38 193.497 25.828C193.497 25.3 193.305 24.892 192.921 24.604C192.537 24.316 191.817 24.112 190.761 23.992C189.705 23.872 188.145 23.812 186.081 23.812H181.221ZM220.526 43.36C215.03 43.36 210.986 42.172 208.394 39.796C205.802 37.396 204.506 34.036 204.506 29.716C204.506 25.444 205.79 22.108 208.358 19.708C210.95 17.308 215.006 16.108 220.526 16.108C226.07 16.108 230.126 17.308 232.694 19.708C235.286 22.108 236.582 25.444 236.582 29.716C236.582 34.06 235.298 37.42 232.73 39.796C230.162 42.172 226.094 43.36 220.526 43.36ZM220.526 36.016C223.19 36.016 225.11 35.512 226.286 34.504C227.462 33.472 228.05 31.876 228.05 29.716C228.05 27.604 227.462 26.032 226.286 25C225.11 23.968 223.19 23.452 220.526 23.452C217.886 23.452 215.978 23.968 214.802 25C213.626 26.032 213.038 27.604 213.038 29.716C213.038 31.852 213.626 33.436 214.802 34.468C215.978 35.5 217.886 36.016 220.526 36.016ZM254.284 28.096H269.656V43H263.32L262.564 36.628C261.844 38.908 260.56 40.6 258.712 41.704C256.864 42.808 254.608 43.36 251.944 43.36C249.52 43.36 247.36 42.82 245.464 41.74C243.592 40.66 242.116 39.112 241.036 37.096C239.98 35.08 239.452 32.728 239.452 30.04C239.452 25.744 240.736 22.348 243.304 19.852C245.872 17.356 249.868 16.108 255.292 16.108C258.388 16.108 261.112 16.612 263.464 17.62C265.84 18.628 267.856 20.188 269.512 22.3C268.432 22.852 266.32 23.956 263.176 25.612L262.276 26.116C261.34 25.18 260.248 24.484 259 24.028C257.752 23.548 256.432 23.308 255.04 23.308C252.736 23.308 251.02 23.92 249.892 25.144C248.764 26.344 248.2 27.832 248.2 29.608C248.2 31.528 248.8 33.076 250 34.252C251.224 35.428 253.084 36.016 255.58 36.016C256.66 36.016 257.704 35.86 258.712 35.548C259.744 35.236 260.608 34.696 261.304 33.928H254.284V28.096ZM288.554 43.36C283.058 43.36 279.014 42.172 276.422 39.796C273.83 37.396 272.534 34.036 272.534 29.716C272.534 25.444 273.818 22.108 276.386 19.708C278.978 17.308 283.034 16.108 288.554 16.108C294.098 16.108 298.154 17.308 300.722 19.708C303.314 22.108 304.61 25.444 304.61 29.716C304.61 34.06 303.326 37.42 300.758 39.796C298.19 42.172 294.122 43.36 288.554 43.36ZM288.554 36.016C291.218 36.016 293.138 35.512 294.314 34.504C295.49 33.472 296.078 31.876 296.078 29.716C296.078 27.604 295.49 26.032 294.314 25C293.138 23.968 291.218 23.452 288.554 23.452C285.914 23.452 284.006 23.968 282.83 25C281.654 26.032 281.066 27.604 281.066 29.716C281.066 31.852 281.654 33.436 282.83 34.468C284.006 35.5 285.914 36.016 288.554 36.016Z" fill="white"/>
</svg>
