<svg width="716" height="147" viewBox="0 0 716 147" fill="none" xmlns="http://www.w3.org/2000/svg">
<path d="M210.8 48.112L217.664 112H194.872L193.464 66.416L184.664 112H161.608L152.632 66.768L151.312 112H128.52L135.384 48.112H165.304L172.96 89.736L179.648 48.112H210.8ZM245.452 95.896C267.745 95.7787 283.908 95.456 293.94 94.928C293.529 97.3333 293.265 99.8267 293.148 102.408C293.089 104.931 293.06 108.128 293.06 112H224.684C225.153 100.619 225.388 89.9707 225.388 80.056C225.388 70.1413 225.153 59.4933 224.684 48.112H293.06V64.04H245.452V72.488C248.268 72.5467 252.433 72.576 257.948 72.576C267.276 72.576 276.927 72.4 286.9 72.048V87.184C276.927 86.832 267.276 86.656 257.948 86.656C252.433 86.656 248.268 86.6853 245.452 86.744V95.896ZM372.206 66.592C362.995 66.2987 354.048 66.1227 345.366 66.064V112H323.366V66.064C314.624 66.1227 305.707 66.2987 296.614 66.592V48.112H372.206V66.592ZM449.95 69.408C449.95 74.512 448.688 78.824 446.166 82.344C443.702 85.864 439.448 88.416 433.406 90C434.11 90.9387 434.608 91.672 434.902 92.2L449.158 112H425.222C422.64 107.189 418.563 100.384 412.99 91.584H400.054V112H379.286C379.755 100.619 379.99 89.9707 379.99 80.056C379.99 70.1413 379.755 59.4933 379.286 48.112H400.054V48.2H418.094C429.944 48.2 438.216 50.1067 442.91 53.92C447.603 57.7333 449.95 62.896 449.95 69.408ZM400.054 65.096V75.128H411.934C416.92 75.128 420.675 74.9813 423.198 74.688C425.779 74.336 427.568 73.808 428.566 73.104C429.563 72.4 430.062 71.3733 430.062 70.024C430.062 68.7333 429.592 67.736 428.654 67.032C427.715 66.328 425.955 65.8293 423.374 65.536C420.792 65.2427 416.979 65.096 411.934 65.096H400.054ZM496.133 112.88C482.698 112.88 472.813 109.976 466.477 104.168C460.141 98.3013 456.973 90.088 456.973 79.528C456.973 69.0853 460.112 60.9307 466.389 55.064C472.725 49.1973 482.64 46.264 496.133 46.264C509.685 46.264 519.6 49.1973 525.877 55.064C532.213 60.9307 535.381 69.0853 535.381 79.528C535.381 90.1467 532.242 98.36 525.965 104.168C519.688 109.976 509.744 112.88 496.133 112.88ZM496.133 94.928C502.645 94.928 507.338 93.696 510.213 91.232C513.088 88.7093 514.525 84.808 514.525 79.528C514.525 74.3653 513.088 70.5227 510.213 68C507.338 65.4773 502.645 64.216 496.133 64.216C489.68 64.216 485.016 65.4773 482.141 68C479.266 70.5227 477.829 74.3653 477.829 79.528C477.829 84.7493 479.266 88.6213 482.141 91.144C485.016 93.6667 489.68 94.928 496.133 94.928ZM578.651 75.568H616.227V112H600.739L598.891 96.424C597.131 101.997 593.992 106.133 589.475 108.832C584.958 111.531 579.443 112.88 572.931 112.88C567.006 112.88 561.726 111.56 557.091 108.92C552.515 106.28 548.907 102.496 546.267 97.568C543.686 92.64 542.395 86.8907 542.395 80.32C542.395 69.8187 545.534 61.5173 551.811 55.416C558.088 49.3147 567.856 46.264 581.115 46.264C588.683 46.264 595.342 47.496 601.091 49.96C606.899 52.424 611.827 56.2373 615.875 61.4C613.235 62.7493 608.072 65.448 600.387 69.496L598.187 70.728C595.899 68.44 593.23 66.7387 590.179 65.624C587.128 64.4507 583.902 63.864 580.499 63.864C574.867 63.864 570.672 65.36 567.915 68.352C565.158 71.2853 563.779 74.9227 563.779 79.264C563.779 83.9573 565.246 87.7413 568.179 90.616C571.171 93.4907 575.718 94.928 581.819 94.928C584.459 94.928 587.011 94.5467 589.475 93.784C591.998 93.0213 594.11 91.7013 595.811 89.824H578.651V75.568ZM662.422 112.88C648.988 112.88 639.102 109.976 632.766 104.168C626.43 98.3013 623.262 90.088 623.262 79.528C623.262 69.0853 626.401 60.9307 632.678 55.064C639.014 49.1973 648.929 46.264 662.422 46.264C675.974 46.264 685.889 49.1973 692.166 55.064C698.502 60.9307 701.67 69.0853 701.67 79.528C701.67 90.1467 698.532 98.36 692.254 104.168C685.977 109.976 676.033 112.88 662.422 112.88ZM662.422 94.928C668.934 94.928 673.628 93.696 676.502 91.232C679.377 88.7093 680.814 84.808 680.814 79.528C680.814 74.3653 679.377 70.5227 676.502 68C673.628 65.4773 668.934 64.216 662.422 64.216C655.969 64.216 651.305 65.4773 648.43 68C645.556 70.5227 644.118 74.3653 644.118 79.528C644.118 84.7493 645.556 88.6213 648.43 91.144C651.305 93.6667 655.969 94.928 662.422 94.928Z" fill="#232529"/>
<circle cx="8.66247" cy="103.338" r="8.66247" fill="#61D9D5"/>
<circle cx="88.9906" cy="103.338" r="8.66247" fill="#FC79D0"/>
<circle cx="8.66247" cy="81.2875" r="8.66247" fill="#61D9D5"/>
<circle cx="88.9906" cy="81.2875" r="8.66247" fill="#FC79D0"/>
<circle cx="8.66247" cy="57.6625" r="8.66247" fill="#FF974B"/>
<circle cx="88.9906" cy="57.6625" r="8.66247" fill="#51D26D"/>
<circle cx="32.2875" cy="74.9877" r="8.66247" fill="#FF974B"/>
<circle cx="65.3656" cy="74.9877" r="8.66247" fill="#51D26D"/>
<circle cx="48.0375" cy="92.3124" r="8.66247" fill="#FCD34D"/>
</svg>
